<svg xmlns="http://www.w3.org/2000/svg" version="1.1"  width="2000" height="1252" viewBox="0 0 2000 1252"><g transform="matrix(1,0,0,1,-1.2121212121212466,108.5155661453241)"><svg viewBox="0 0 396 248" data-background-color="#ffffff" preserveAspectRatio="xMidYMid meet" height="1252" width="2000" xmlns="http://www.w3.org/2000/svg" xmlns:xlink="http://www.w3.org/1999/xlink"><g id="tight-bounds" transform="matrix(1,0,0,1,0.2400000000000091,0.4000000000000057)"><svg viewBox="0 0 395.52 247.2" height="170.2" width="355.52"><g><svg></svg></g><g><svg viewBox="0 0 395.52 247.2" height="247.2" width="355.52"><g transform="matrix(1,0,0,1,75.54432,105.91497681355932)"><svg viewBox="0 0 244.43135999999998 35.37004637288135" height="35.37004637288135" width="244.43135999999998"><g><svg viewBox="0 0 244.43135999999998 35.37004637288135" height="35.37004637288135" width="244.43135999999998"><g><svg viewBox="0 0 244.43135999999998 35.37004637288135" height="35.37004637288135" width="244.43135999999998"><g><svg viewBox="0 0 244.43135999999998 35.37004637288135" height="35.37004637288135" width="244.43135999999998"><g id="textblocktransform"><svg viewBox="0 0 244.43135999999998 35.37004637288135" height="35.37004637288135" width="244.43135999999998" id="textblock"><g><svg viewBox="0 0 244.43135999999998 35.37004637288135" height="35.37004637288135" width="244.43135999999998"><g transform="matrix(1,0,0,1,0,0)"><svg width="244.43135999999998" viewBox="0.1 -33.65 235.98000000000002 34.15" height="35.37004637288135" data-palette-color="#556970"><path d="M34.25-33L34.25-33 37.8-29.95Q35.55-25.7 33.77-22 32-18.3 30.43-14.78 28.85-11.25 27.35-7.53 25.85-3.8 24.2 0.45L24.2 0.45 21.5 0.45 21.95-4.85Q25.35-11 28.28-17.98 31.2-24.95 34.25-33ZM8.45-26.25L10.2-29.45Q9.95-26.95 9.8-23.7 9.65-20.45 9.6-16.85 9.55-13.25 9.58-9.68 9.6-6.1 9.7-2.95L9.7-2.95 15.05-1.9 14.35 0Q12.5-0.1 11-0.13 9.5-0.15 7.55-0.15L7.55-0.15Q5.2-0.15 3.63-0.13 2.05-0.1 0.75 0L0.75 0 0.1-1.9 5.1-2.95Q5.5-7.25 5.78-11.88 6.05-16.5 6.18-21.05 6.3-25.6 6.3-29.55L6.3-29.55 1.35-30.95 2.15-33Q3.75-32.95 5.13-32.9 6.5-32.85 8.2-32.85L8.2-32.85Q9.7-32.85 11.15-32.9 12.6-32.95 13.75-33L13.75-33Q15.4-29.3 16.85-26.1 18.3-22.9 19.75-19.9 21.2-16.9 22.8-13.88 24.4-10.85 26.4-7.45L26.4-7.45 24.2 0.45 21.5 0.45Q19.65-3.6 18.23-6.58 16.8-9.55 15.63-11.93 14.45-14.3 13.35-16.45 12.25-18.6 11.08-20.95 9.9-23.3 8.45-26.25L8.45-26.25ZM45.65-33L45.65-33 46.45-30.95 41.8-29.55Q41.95-26.15 42.05-23.45 42.15-20.75 42.25-18.43 42.35-16.1 42.45-13.8 42.55-11.5 42.68-8.88 42.8-6.25 43-2.95L43-2.95 47.65-1.9 46.85 0Q45.55-0.1 43.9-0.13 42.25-0.15 39.3-0.15L39.3-0.15Q36.6-0.15 34.88-0.1 33.15-0.05 31.65 0L31.65 0 30.95-1.9 35.6-2.95Q35.5-8.35 35.33-12.78 35.15-17.2 34.95-21.43 34.75-25.65 34.4-30.4L34.4-30.4 34.25-33Q35.35-32.95 36.7-32.9 38.05-32.85 39.45-32.85L39.45-32.85Q41.05-32.85 42.7-32.9 44.35-32.95 45.65-33ZM61.1-21.7L61.1-21.7Q64.8-21.7 67.27-20.15 69.75-18.6 70.97-16.1 72.2-13.6 72.2-10.7L72.2-10.7Q72.2-7.75 70.95-5.18 69.7-2.6 67.2-1.05 64.7 0.5 60.95 0.5L60.95 0.5Q57.2 0.5 54.65-1.07 52.1-2.65 50.8-5.25 49.5-7.85 49.5-10.8L49.5-10.8Q49.5-13.7 50.77-16.18 52.05-18.65 54.62-20.18 57.2-21.7 61.1-21.7ZM56.5-11.85L56.5-11.85Q56.5-9.35 57.07-7.1 57.65-4.85 58.8-3.45 59.95-2.05 61.55-2.05L61.55-2.05Q63.45-2.05 64.37-4.13 65.3-6.2 65.3-9.3L65.3-9.3Q65.3-11.8 64.72-14.03 64.15-16.25 63.02-17.68 61.9-19.1 60.25-19.1L60.25-19.1Q58.35-19.1 57.42-17.03 56.5-14.95 56.5-11.85ZM87.75-20.95L87.75-20.95 88.6-19.05 84.8-17.95Q85.6-16.1 86.15-14.78 86.7-13.45 87.27-12.23 87.85-11 88.62-9.53 89.4-8.05 90.6-5.9L90.6-5.9Q90.7-5.4 90.25-4.38 89.8-3.35 89.12-2.23 88.45-1.1 87.77-0.33 87.1 0.45 86.7 0.45L86.7 0.45Q85.35-2.3 84.22-4.55 83.1-6.8 82.07-8.85 81.05-10.9 79.9-13.1 78.75-15.3 77.3-17.95L77.3-17.95 73.95-19.05 74.45-20.95Q75.95-20.9 77.37-20.85 78.8-20.8 80.7-20.8L80.7-20.8Q82.8-20.8 84.6-20.85 86.4-20.9 87.75-20.95ZM101.6-20.95L101.6-20.95 102.4-19.05 98.65-17.95Q96.75-14.4 95.42-11.48 94.1-8.55 92.9-5.7 91.7-2.85 90.25 0.45L90.25 0.45 86.7 0.45Q88.8-3.85 90.72-8.28 92.65-12.7 94.2-17.95L94.2-17.95 90.35-19.05 91.1-20.95Q92.7-20.9 93.92-20.85 95.15-20.8 96.45-20.8L96.45-20.8Q98.15-20.8 99.2-20.85 100.25-20.9 101.6-20.95ZM113.89-21.75L113.89-21.75Q113.84-18.85 113.77-16.2 113.69-13.55 113.69-11.4L113.69-11.4Q113.69-9.55 113.77-7.15 113.84-4.75 113.89-2.9L113.89-2.9 117.89-1.85 117.04 0Q115.74-0.1 114.42-0.13 113.09-0.15 110.44-0.15L110.44-0.15Q107.99-0.15 106.62-0.1 105.24-0.05 103.69 0L103.69 0 102.89-1.85 107.14-2.9Q107.24-5.4 107.27-7.25 107.29-9.1 107.24-11.3L107.24-11.3Q107.24-12.45 107.22-13.35 107.19-14.25 107.14-15.38 107.09-16.5 106.94-18.25L106.94-18.25 103.39-18.9 102.64-20.8Q103.79-20.85 105.62-20.95 107.44-21.05 109.59-21.25 111.74-21.45 113.89-21.75ZM110.14-25.45L110.14-25.45Q108.54-25.45 107.39-26.65 106.24-27.85 106.24-29.6L106.24-29.6Q106.24-31.25 107.39-32.45 108.54-33.65 110.14-33.65L110.14-33.65Q111.74-33.65 112.89-32.45 114.04-31.25 114.04-29.6L114.04-29.6Q114.04-27.85 112.89-26.65 111.74-25.45 110.14-25.45ZM129.29-21.85L129.29-21.85Q131.79-21.85 133.92-20.75 136.04-19.65 137.32-17.43 138.59-15.2 138.59-11.85L138.59-11.85Q137.49-11.65 135.69-11.5 133.89-11.35 131.74-11.28 129.59-11.2 127.44-11.2L127.44-11.2Q125.84-11.2 124.69-11.25 123.54-11.3 123.14-11.35L123.14-11.35 123.14-13.75Q123.69-13.75 124.82-13.75 125.94-13.75 127.34-13.8 128.74-13.85 130.07-13.95 131.39-14.05 132.29-14.2L132.29-14.2Q132.24-15.25 131.72-16.32 131.19-17.4 130.14-18.15 129.09-18.9 127.44-18.9L127.44-18.9Q126.44-17.95 125.84-16.28 125.24-14.6 125.24-12.4L125.24-12.4Q125.24-7.9 127.12-5.78 128.99-3.65 131.74-3.65L131.74-3.65Q134.54-3.65 137.64-5.65L137.64-5.65 138.74-3.35Q136.59-1.4 134.14-0.55 131.69 0.3 129.29 0.3L129.29 0.3Q126.49 0.3 124.07-0.93 121.64-2.15 120.17-4.6 118.69-7.05 118.69-10.7L118.69-10.7Q118.69-14.4 120.22-16.88 121.74-19.35 124.17-20.6 126.59-21.85 129.29-21.85ZM154.64-33.65L154.64-33.65Q157.39-33.65 160.24-33.02 163.09-32.4 165.14-31.35L165.14-31.35Q164.64-28.9 164.24-27.08 163.84-25.25 163.44-23.3L163.44-23.3 160.24-23.3 159.74-28.75Q159.04-29.75 157.56-30.28 156.09-30.8 154.49-30.8L154.49-30.8Q152.54-30.8 150.99-29.7 149.44-28.6 149.44-26.5L149.44-26.5Q149.44-24.85 150.66-23.73 151.89-22.6 153.81-21.68 155.74-20.75 157.89-19.75 160.04-18.75 161.96-17.38 163.89-16 165.11-13.95 166.34-11.9 166.34-8.85L166.34-8.85Q166.34-5.55 164.49-3.48 162.64-1.4 159.71-0.45 156.79 0.5 153.49 0.5L153.49 0.5Q150.44 0.5 147.49-0.25 144.54-1 142.39-2.35L142.39-2.35Q142.94-4.6 143.31-6.38 143.69-8.15 144.04-10.6L144.04-10.6 147.29-10.6 147.99-4.1Q149.14-3.3 150.46-2.85 151.79-2.4 153.24-2.4L153.24-2.4Q155.59-2.4 157.36-3.58 159.14-4.75 159.14-7.45L159.14-7.45Q159.14-9.55 157.96-10.85 156.79-12.15 154.94-13.05 153.09-13.95 151.01-14.8 148.94-15.65 147.09-16.8 145.24-17.95 144.06-19.75 142.89-21.55 142.89-24.4L142.89-24.4Q142.89-27.5 144.51-29.55 146.14-31.6 148.81-32.63 151.49-33.65 154.64-33.65ZM180.74-21.85L180.74-21.85Q183.24-21.85 185.36-20.75 187.49-19.65 188.76-17.43 190.04-15.2 190.04-11.85L190.04-11.85Q188.94-11.65 187.14-11.5 185.34-11.35 183.19-11.28 181.04-11.2 178.89-11.2L178.89-11.2Q177.29-11.2 176.14-11.25 174.99-11.3 174.59-11.35L174.59-11.35 174.59-13.75Q175.14-13.75 176.26-13.75 177.39-13.75 178.79-13.8 180.19-13.85 181.51-13.95 182.84-14.05 183.74-14.2L183.74-14.2Q183.69-15.25 183.16-16.32 182.64-17.4 181.59-18.15 180.54-18.9 178.89-18.9L178.89-18.9Q177.89-17.95 177.29-16.28 176.69-14.6 176.69-12.4L176.69-12.4Q176.69-7.9 178.56-5.78 180.44-3.65 183.19-3.65L183.19-3.65Q185.99-3.65 189.09-5.65L189.09-5.65 190.19-3.35Q188.04-1.4 185.59-0.55 183.14 0.3 180.74 0.3L180.74 0.3Q177.94 0.3 175.51-0.93 173.09-2.15 171.61-4.6 170.14-7.05 170.14-10.7L170.14-10.7Q170.14-14.4 171.66-16.88 173.19-19.35 175.61-20.6 178.04-21.85 180.74-21.85ZM202.73-21.85L202.73-21.85Q205.23-21.85 207.36-20.75 209.48-19.65 210.76-17.43 212.03-15.2 212.03-11.85L212.03-11.85Q210.93-11.65 209.13-11.5 207.33-11.35 205.18-11.28 203.03-11.2 200.88-11.2L200.88-11.2Q199.28-11.2 198.13-11.25 196.98-11.3 196.58-11.35L196.58-11.35 196.58-13.75Q197.13-13.75 198.26-13.75 199.38-13.75 200.78-13.8 202.18-13.85 203.51-13.95 204.83-14.05 205.73-14.2L205.73-14.2Q205.68-15.25 205.16-16.32 204.63-17.4 203.58-18.15 202.53-18.9 200.88-18.9L200.88-18.9Q199.88-17.95 199.28-16.28 198.68-14.6 198.68-12.4L198.68-12.4Q198.68-7.9 200.56-5.78 202.43-3.65 205.18-3.65L205.18-3.65Q207.98-3.65 211.08-5.65L211.08-5.65 212.18-3.35Q210.03-1.4 207.58-0.55 205.13 0.3 202.73 0.3L202.73 0.3Q199.93 0.3 197.51-0.93 195.08-2.15 193.61-4.6 192.13-7.05 192.13-10.7L192.13-10.7Q192.13-14.4 193.66-16.88 195.18-19.35 197.61-20.6 200.03-21.85 202.73-21.85ZM224.48-21.7L224.48-21.7Q224.53-20.55 224.63-19 224.73-17.45 224.83-16.18 224.93-14.9 224.93-14.45L224.93-14.45 225.28-3.1 230.23-1.85 229.48 0Q228.63-0.05 227.23-0.08 225.83-0.1 224.33-0.13 222.83-0.15 221.63-0.15L221.63-0.15Q220.08-0.15 218.28-0.1 216.48-0.05 214.98 0L214.98 0 214.23-1.85 218.28-2.9Q218.28-5.15 218.28-6.93 218.28-8.7 218.28-10.8L218.28-10.8Q218.28-11.95 218.26-12.93 218.23-13.9 218.18-15.13 218.13-16.35 217.98-18.15L217.98-18.15 214.58-18.7 213.88-20.8Q215.03-20.85 216.96-20.95 218.88-21.05 220.93-21.25 222.98-21.45 224.48-21.7ZM231.18-21.8L231.18-21.8Q232.58-21.8 233.78-21.28 234.98-20.75 236.08-19.6L236.08-19.6Q235.78-18.1 235.53-17 235.28-15.9 234.96-14.83 234.63-13.75 234.18-12.2L234.18-12.2 231.38-12.2Q231.03-14.05 230.36-15.43 229.68-16.8 228.53-17.3L228.53-17.3Q227.28-16.5 226.16-14.33 225.03-12.15 225.03-8.55L225.03-8.55 223.08-11.45Q223.48-14.25 224.63-16.6 225.78-18.95 227.46-20.38 229.13-21.8 231.18-21.8Z" opacity="1" transform="matrix(1,0,0,1,0,0)" fill="#556970" class="wordmark-text-0" data-fill-palette-color="primary" id="text-0"></path></svg></g></svg></g></svg></g></svg></g><g></g></svg></g></svg></g></svg></g><g><path d="M78.35 97.565A122.216 122.216 0 0 1 317.17 97.565L313.981 97.565A119.026 119.026 0 0 0 81.539 97.565L78.35 97.565M78.35 149.635A122.216 122.216 0 0 0 317.17 149.635L313.981 149.635A119.026 119.026 0 0 1 81.539 149.635L78.35 149.635" fill="#556970" stroke="transparent" data-fill-palette-color="tertiary"></path></g></svg></g><defs></defs></svg><rect width="395.52" height="247.2" fill="none" stroke="none" visibility="hidden"></rect></g></svg></g></svg>