<svg xmlns="http://www.w3.org/2000/svg" 
 width="2000" height="1400" viewBox="0 0 2000 2007"><g transform="matrix(1,0,0,1,0,-3.5695377935269335)"><svg viewBox="0 0 280 281" data-background-color="#2e024e" preserveAspectRatio="xMidYMid meet" height="1900" width="1300" xmlns="http://www.w3.org/2000/svg" xmlns:xlink="http://www.w3.org/1999/xlink"><g id="tight-bounds" transform="matrix(1,0,0,1,0,0.5000522579112783)"><svg viewBox="0 0 280 280" height="280" width="280"><g><svg viewBox="0 0 280 280" height="280" width="280"><g transform="matrix(1,0,0,1,60.80404050710668,69.28632248884819)"><svg viewBox="0 0 158.39191898578665 141.42735502230363" height="141.42735502230363" width="158.39191898578665"><g><svg viewBox="0 0 158.39191898578665 141.42735502230363" height="141.42735502230363" width="158.39191898578665"><g><svg viewBox="0 0 158.39191898578665 141.42735502230363" height="141.42735502230363" width="158.39191898578665"><g id="textblocktransform"><svg viewBox="0 0 158.39191898578665 141.42735502230363" height="141.42735502230363" width="158.39191898578665" id="textblock"><g><svg viewBox="0 0 158.39191898578665 141.42735502230363" height="141.42735502230363" width="158.39191898578665"><g transform="matrix(1,0,0,1,0,0)"><svg width="158.39191898578665" viewBox="-3.5 -39.1 47.15 42.1" height="141.42735502230363" data-palette-color="#d579ff"><g class="wordmark-text-0" data-fill-palette-color="primary" id="text-0"><path d="M43.2-37.1L43.2-37.1Q40.6-33.35 37.4-27.6 34.2-21.85 32.3-17.95L32.3-17.95 30.4-14.05Q25.25-3.35 25.25 1.3L25.25 1.3Q25.25 1.4 25.28 1.7 25.3 2 25.3 2.2L25.3 2.2Q25.3 3 24.85 3L24.85 3Q24 3 23 1.53 22 0.05 22-2.4L22-2.4Q22-4.65 23.08-7.9 24.15-11.15 26.25-15.33 28.35-19.5 29.78-22.05 31.2-24.6 33.55-28.7L33.55-28.7Q33.7-29 33.7-29.15L33.7-29.15Q33.6-29.4 33.45-29.4L33.45-29.4Q33.15-29.4 32.85-29.15L32.85-29.15Q29.9-26.75 25.1-21 20.3-15.25 17-10.7L17-10.7 13.65-6.15Q12.85-4.95 12.35-4.95L12.35-4.95Q12.2-4.95 12.1-5.05 12-5.15 11.95-5.33 11.9-5.5 11.88-5.65 11.85-5.8 11.85-5.9L11.85-5.9 11.85-6Q12.2-9.1 12.88-14.65 13.55-20.2 14-24 14.45-27.8 14.45-27.9L14.45-27.9Q14.45-28.4 14.25-28.4L14.25-28.4Q14.15-28.4 13.98-28.25 13.8-28.1 13.7-27.95L13.7-27.95 13.6-27.8Q11.45-24.6 9-19.53 6.55-14.45 5.05-10.55L5.05-10.55Q3.95-7.75 2.8-5.43 1.65-3.1 0.78-1.83-0.1-0.55-0.83 0.33-1.55 1.2-1.95 1.5L-1.95 1.5-2.35 1.8Q-2.9 2.25-3.2 2.25-3.5 2.25-3.5 1.75L-3.5 1.75-3.45 1.3Q-2.95-1.35 0.93-8.8 4.8-16.25 8.45-22.4L8.45-22.4 12.1-28.5 14.85-33.25Q16.9-39.1 18-39.1L18-39.1Q18.75-39.1 18.75-36.55L18.75-36.55Q17.2-17.95 17.2-15.3L17.2-15.3Q17.2-14.55 17.5-14.55 17.8-14.55 18.2-15.1L18.2-15.1Q18.85-15.95 20-17.4 21.15-18.85 24.4-22.6 27.65-26.35 30.53-29.35 33.4-32.35 36.8-35.1 40.2-37.85 42.4-38.45L42.4-38.45Q42.9-38.55 43.05-38.55L43.05-38.55Q43.65-38.55 43.65-38.1L43.65-38.1Q43.65-37.7 43.2-37.1Z" fill="#d579ff" data-fill-palette-color="primary"></path></g></svg></g></svg></g></svg></g></svg></g></svg></g></svg></g><g id="text-0"><path d="M159.549 2.095v0c-1.231 1.611-2.616 3.66-4.155 6.148-1.532 2.494-2.762 4.587-3.689 6.279v0l-1.381 2.548c-2.507 4.646-3.807 8.001-3.9 10.065v0c-0.002 0.047 0 0.137 0.007 0.271 0.007 0.134 0.009 0.245 0.005 0.332v0c-0.016 0.361-0.125 0.537-0.325 0.527v0c-0.381-0.017-0.777-0.367-1.187-1.048-0.418-0.675-0.602-1.557-0.553-2.645v0c0.045-0.995 0.341-2.204 0.887-3.625 0.54-1.428 1.32-3.046 2.339-4.855 1.02-1.815 1.869-3.276 2.549-4.382 0.686-1.1 1.591-2.539 2.716-4.315v0c0.073-0.131 0.111-0.229 0.114-0.296v0c-0.035-0.109-0.086-0.165-0.153-0.168v0c-0.134-0.006-0.27 0.041-0.408 0.142v0c-1.358 1.009-3.164 2.742-5.417 5.197-2.247 2.462-4.148 4.668-5.703 6.619v0l-2.372 2.935c-0.378 0.518-0.681 0.772-0.908 0.762v0c-0.067-0.003-0.119-0.029-0.158-0.077-0.045-0.049-0.075-0.111-0.092-0.185-0.023-0.081-0.036-0.156-0.04-0.223-0.01-0.067-0.015-0.121-0.012-0.161v0l0.003-0.07c0.216-1.369 0.53-3.279 0.943-5.731 0.412-2.451 0.757-4.518 1.034-6.199 0.277-1.681 0.417-2.545 0.419-2.592v0c0.01-0.22-0.028-0.333-0.116-0.336v0c-0.047-0.002-0.112 0.028-0.194 0.091-0.077 0.063-0.14 0.128-0.19 0.192v0l-0.065 0.098c-1.02 1.38-2.125 3.17-3.316 5.372-1.191 2.209-2.16 4.163-2.907 5.863v0c-0.544 1.227-1.097 2.343-1.658 3.349-0.555 1.012-1.039 1.794-1.452 2.344-0.42 0.543-0.799 1.005-1.137 1.384-0.338 0.373-0.601 0.622-0.787 0.747v0l-0.27 0.189c-0.256 0.189-0.451 0.281-0.585 0.275-0.134-0.006-0.195-0.123-0.185-0.35v0l0.054-0.299c0.274-1.166 1.347-3.363 3.221-6.591 1.867-3.236 3.674-6.183 5.422-8.842v0l2.619-3.947 1.978-3.084c1.026-2.557 1.784-3.825 2.271-3.803v0c0.334 0.015 0.475 0.587 0.424 1.716v0c-1.063 8.232-1.621 12.937-1.675 14.113v0c-0.015 0.334 0.044 0.504 0.178 0.51 0.134 0.006 0.293-0.107 0.477-0.34v0c0.311-0.367 0.735-0.86 1.273-1.479 0.544-0.625 1.575-1.736 3.093-3.333 1.518-1.598 2.946-3.036 4.282-4.315 1.337-1.278 2.791-2.491 4.363-3.637 1.565-1.154 2.842-1.842 3.829-2.066v0c0.223-0.037 0.367-0.054 0.434-0.05v0c0.267 0.012 0.396 0.118 0.387 0.318v0c-0.008 0.18-0.119 0.4-0.331 0.658z" fill="#ffffff" data-fill-palette-color="accent"></path><path d="M156.828 254.436v0c-1.011 1.589-2.124 3.597-3.341 6.024-1.223 2.434-2.191 4.47-2.905 6.106v0l-1.081 2.466c-1.939 4.506-2.868 7.718-2.787 9.635v0c0.002 0.04 0.012 0.123 0.031 0.249 0.012 0.127 0.02 0.23 0.023 0.311v0c0.014 0.327-0.07 0.495-0.25 0.502v0c-0.354 0.015-0.751-0.273-1.191-0.863-0.433-0.591-0.671-1.391-0.713-2.4v0c-0.039-0.929 0.134-2.074 0.518-3.435 0.384-1.362 0.975-2.919 1.771-4.673 0.796-1.76 1.466-3.181 2.009-4.261 0.544-1.074 1.264-2.476 2.162-4.208v0c0.055-0.129 0.081-0.224 0.078-0.284v0c-0.045-0.105-0.097-0.157-0.157-0.154v0c-0.127 0.005-0.248 0.064-0.364 0.176v0c-1.174 1.04-2.704 2.788-4.588 5.243-1.878 2.455-3.459 4.65-4.743 6.585v0l-1.956 2.904c-0.307 0.508-0.563 0.767-0.77 0.775v0c-0.067 0.003-0.121-0.015-0.163-0.053-0.042-0.038-0.074-0.094-0.097-0.167-0.023-0.073-0.043-0.139-0.059-0.198-0.009-0.06-0.015-0.11-0.016-0.15v0l-0.003-0.07c0.087-1.282 0.222-3.075 0.406-5.378 0.184-2.304 0.337-4.241 0.458-5.813 0.114-1.578 0.171-2.387 0.168-2.426v0c-0.009-0.207-0.053-0.309-0.133-0.306v0c-0.04 0.002-0.096 0.034-0.166 0.097-0.071 0.07-0.125 0.136-0.163 0.198v0l-0.056 0.093c-0.833 1.36-1.71 3.107-2.631 5.241-0.92 2.14-1.658 4.026-2.211 5.655v0c-0.406 1.175-0.825 2.254-1.259 3.236-0.434 0.982-0.82 1.741-1.159 2.277-0.339 0.543-0.651 1.001-0.936 1.375-0.285 0.373-0.506 0.627-0.661 0.761v0l-0.243 0.191c-0.219 0.197-0.392 0.298-0.519 0.303-0.12 0.005-0.185-0.096-0.194-0.303v0l0.018-0.282c0.161-1.098 0.976-3.217 2.443-6.358 1.467-3.147 2.902-6.019 4.306-8.615v0l2.096-3.873 1.58-3.008c0.747-2.454 1.347-3.691 1.801-3.71v0c0.307-0.013 0.483 0.508 0.528 1.564v0c-0.318 7.697-0.454 12.094-0.408 13.189v0c0.013 0.307 0.083 0.458 0.21 0.453 0.12-0.005 0.259-0.125 0.416-0.359v0c0.253-0.359 0.603-0.849 1.053-1.47 0.449-0.615 1.313-1.725 2.59-3.332 1.278-1.6 2.482-3.046 3.612-4.339 1.137-1.286 2.383-2.527 3.739-3.721 1.355-1.195 2.482-1.935 3.38-2.221v0c0.199-0.049 0.332-0.074 0.399-0.077v0c0.247-0.01 0.375 0.078 0.382 0.265v0c0.007 0.167-0.078 0.378-0.254 0.633z" fill="#ffffff" data-fill-palette-color="accent"></path><path d="M3.645 143.923c0-5.502 4.46-9.963 9.963-9.962 5.502 0 9.963 4.46 9.963 9.962 0 5.502-4.46 9.963-9.963 9.963-5.502 0-9.963-4.46-9.963-9.963z" fill="#ffffff" data-fill-palette-color="accent"></path><path d="M256.429 143.923c0-5.502 4.46-9.963 9.963-9.962 5.502 0 9.963 4.46 9.963 9.962 0 5.502-4.46 9.963-9.963 9.963-5.502 0-9.963-4.46-9.963-9.963z" fill="#ffffff" data-fill-palette-color="accent"></path></g><g id="text-1"></g></svg></g><defs></defs></svg><rect width="280" height="280" fill="none" stroke="none" visibility="hidden"></rect></g></svg></g></svg>